<?xml version="1.0" standalone="no"?>
<!DOCTYPE svg PUBLIC "-//W3C//DTD SVG 20010904//EN"
 "http://www.w3.org/TR/2001/REC-SVG-20010904/DTD/svg10.dtd">
<svg version="1.0" xmlns="http://www.w3.org/2000/svg"
 width="700.000000pt" height="700.000000pt" viewBox="0 0 700.000000 700.000000"
 preserveAspectRatio="xMidYMid meet">
<metadata>
Created by potrace 1.14, written by Peter Selinger 2001-2017
</metadata>
<g transform="translate(0.000000,700.000000) scale(0.100000,-0.100000)"
fill="#000000" stroke="none">
<path d="M3020 5990 c-261 -93 -511 -183 -555 -199 -44 -16 -408 -146 -810
-289 -401 -143 -738 -264 -747 -267 -12 -5 -16 -14 -13 -29 2 -11 7 -48 11
-81 8 -84 10 -103 17 -160 4 -27 9 -71 12 -97 7 -67 15 -131 25 -218 5 -41 12
-97 14 -125 3 -27 11 -90 16 -140 14 -115 19 -158 25 -220 3 -27 8 -67 11 -88
3 -21 7 -55 9 -75 4 -43 13 -130 21 -187 2 -22 7 -56 9 -75 2 -19 6 -57 10
-85 3 -27 7 -68 10 -90 3 -22 7 -62 10 -90 3 -27 10 -84 15 -125 5 -41 12
-100 15 -130 3 -30 7 -71 10 -90 8 -61 14 -113 20 -170 3 -30 7 -71 10 -90 2
-19 7 -60 10 -90 4 -30 8 -66 10 -80 2 -14 7 -54 10 -90 4 -36 9 -72 10 -80 1
-8 6 -46 9 -85 4 -38 9 -81 11 -95 2 -14 7 -52 10 -85 3 -33 8 -71 10 -85 2
-14 6 -52 10 -85 3 -33 8 -71 10 -85 2 -14 6 -52 10 -85 15 -151 8 -137 98
-187 84 -46 1327 -735 1472 -816 44 -24 105 -58 135 -75 30 -16 159 -88 287
-158 l232 -129 53 30 c29 16 78 43 108 59 131 69 209 118 202 126 -4 5 -2 5 5
1 6 -3 29 3 50 15 21 12 72 40 113 62 41 22 77 43 80 46 3 3 30 19 60 34 30
16 73 38 95 51 22 13 72 40 110 61 39 21 87 49 108 62 20 13 37 20 37 17 0 -4
8 0 18 8 9 9 36 25 60 37 26 13 40 26 36 33 -4 7 -3 8 5 4 11 -7 30 1 101 41
19 10 91 50 160 88 69 38 128 74 132 80 4 5 8 6 8 2 0 -5 12 0 28 10 15 11 53
32 84 48 31 16 54 34 51 40 -4 5 -2 7 2 2 5 -4 38 9 74 29 36 20 89 49 116 64
28 15 66 36 85 47 19 11 79 43 133 73 56 31 97 60 98 69 0 9 2 25 3 36 2 11 6
49 10 85 13 126 17 154 22 161 2 4 0 11 -6 14 -7 4 -8 11 -1 18 5 7 12 41 16
77 3 36 8 72 10 80 2 8 7 44 10 80 3 36 8 78 10 94 2 16 6 57 9 90 4 34 8 72
11 86 2 14 11 93 20 175 9 83 18 161 20 175 5 35 14 116 20 175 3 28 7 66 10
85 2 19 7 60 11 90 3 30 8 66 9 80 6 45 18 154 20 190 2 19 5 49 8 65 3 17 8
53 11 80 4 28 9 68 11 90 9 76 16 140 20 185 4 43 9 80 21 173 3 24 7 64 9 88
2 24 6 60 9 79 2 19 8 59 11 89 3 30 8 64 10 75 2 12 7 50 10 86 3 36 7 79 9
95 2 17 9 75 16 130 6 55 13 116 15 135 2 19 7 60 10 90 8 75 17 142 20 162 4
19 14 15 -185 84 -85 30 -164 58 -175 63 -16 8 -83 31 -105 36 -3 1 -18 7 -33
13 -16 7 -33 12 -38 12 -5 0 -17 4 -27 9 -19 11 -135 53 -197 71 -22 7 -46 17
-52 23 -7 5 -13 7 -13 4 0 -4 -20 2 -45 13 -25 11 -45 17 -45 13 0 -3 -6 -1
-12 4 -7 6 -40 20 -73 31 -33 11 -106 37 -163 57 -56 20 -107 33 -114 29 -7
-4 -8 -3 -4 4 4 7 4 12 -1 13 -4 0 -15 2 -23 4 -24 6 -490 174 -544 197 -27
11 -57 17 -67 15 -11 -3 -17 -2 -14 3 2 4 -44 24 -103 45 -59 20 -116 41 -127
46 -50 22 -116 39 -127 33 -6 -4 -8 -3 -5 3 8 13 -89 47 -106 37 -7 -4 -8 -3
-4 1 6 8 -115 59 -163 70 -8 2 -22 6 -30 9 -8 3 -229 -71 -490 -164z m520
-535 c15 -33 49 -109 75 -170 27 -60 54 -121 61 -135 16 -29 56 -121 59 -135
2 -5 18 -44 38 -85 51 -111 76 -166 93 -210 9 -23 21 -37 27 -33 6 3 7 1 3 -6
-4 -6 1 -31 12 -54 11 -23 29 -63 41 -89 11 -27 31 -69 42 -95 62 -138 72
-160 84 -188 7 -16 27 -60 44 -98 17 -37 31 -72 31 -77 0 -6 4 -10 8 -10 5 0
9 -6 9 -12 0 -7 14 -43 32 -81 17 -37 31 -69 31 -71 0 -2 18 -43 40 -90 22
-47 40 -90 40 -96 0 -5 4 -10 8 -10 5 0 9 -6 9 -12 0 -7 14 -43 31 -80 18 -37
32 -69 32 -72 0 -2 15 -37 34 -78 71 -153 93 -204 100 -226 4 -12 11 -20 15
-18 4 3 7 -5 7 -17 -1 -12 4 -21 11 -20 7 2 10 -3 7 -10 -2 -7 12 -49 32 -93
19 -43 46 -101 58 -129 13 -27 38 -84 56 -125 18 -41 47 -106 65 -145 18 -38
38 -87 46 -107 7 -21 17 -38 21 -38 4 0 8 -7 8 -15 0 -8 4 -23 9 -33 10 -18
27 -56 130 -287 14 -33 51 -116 82 -185 l56 -125 -26 -5 c-29 -6 -580 -5 -584
1 -1 2 -17 40 -34 84 -18 44 -37 94 -44 110 -7 17 -13 32 -14 35 -1 3 -8 21
-16 40 -9 19 -24 58 -34 85 -10 28 -22 54 -27 59 -4 6 -8 15 -8 22 0 6 -9 31
-19 55 -11 24 -20 47 -21 51 0 4 -12 33 -25 63 -14 31 -25 62 -25 71 0 8 -7
17 -15 20 -8 4 -13 10 -10 14 5 7 -21 86 -32 100 -7 8 -517 6 -535 -2 -9 -4
-19 -5 -21 -1 -3 5 -190 8 -417 8 l-412 0 -149 -370 c-83 -203 -154 -384 -160
-402 -5 -18 -14 -35 -20 -39 -8 -4 -559 -9 -601 -5 -6 1 6 30 77 186 8 17 53
118 101 225 125 281 412 925 441 990 14 30 31 69 38 85 8 17 60 134 116 260
55 127 112 255 126 285 14 30 41 91 60 135 20 44 47 105 60 135 14 30 33 73
43 95 10 22 29 65 43 95 14 30 125 279 246 553 265 595 274 614 279 596 2 -8
16 -41 32 -74z"/>
<path d="M3497 4344 c-8 -14 -459 -1097 -464 -1117 -5 -16 21 -17 466 -17 259
0 471 2 471 5 0 2 -5 16 -12 32 -6 15 -12 34 -14 41 -1 7 -9 24 -18 37 -9 13
-16 29 -16 35 0 6 -9 29 -19 53 -11 23 -69 164 -131 312 -61 149 -115 279
-120 290 -19 41 -114 271 -125 304 -7 18 -15 30 -18 25z"/>
</g>
</svg>
